<?xml version="1.0" encoding="UTF-8" standalone="no"?>
<!-- Created with Inkscape (http://www.inkscape.org/) -->

<svg
   xmlns:dc="http://purl.org/dc/elements/1.1/"
   xmlns:cc="http://creativecommons.org/ns#"
   xmlns:rdf="http://www.w3.org/1999/02/22-rdf-syntax-ns#"
   xmlns:svg="http://www.w3.org/2000/svg"
   xmlns="http://www.w3.org/2000/svg"
   xmlns:sodipodi="http://sodipodi.sourceforge.net/DTD/sodipodi-0.dtd"
   xmlns:inkscape="http://www.inkscape.org/namespaces/inkscape"
   width="76.032501"
   height="75"
   id="svg4154"
   version="1.1"
   inkscape:version="0.92.4 (5da689c313, 2019-01-14)"
   sodipodi:docname="Nova_Poshta.svg">
  <defs
     id="defs4156" />
  <sodipodi:namedview
     id="base"
     pagecolor="#ffffff"
     bordercolor="#ffffff"
     borderopacity="0.0"
     inkscape:pageopacity="0.0"
     inkscape:pageshadow="0"
     inkscape:zoom="5.6"
     inkscape:cx="42.820209"
     inkscape:cy="47.787919"
     inkscape:document-units="px"
     inkscape:current-layer="layer1"
     showgrid="false"
     fit-margin-top="0"
     fit-margin-left="0"
     fit-margin-right="0"
     fit-margin-bottom="0"
     inkscape:window-width="1920"
     inkscape:window-height="1001"
     inkscape:window-x="-9"
     inkscape:window-y="-9"
     inkscape:window-maximized="1" />
  <metadata
     id="metadata4159">
    <rdf:RDF>
      <cc:Work
         rdf:about="">
        <dc:format>image/svg+xml</dc:format>
        <dc:type
           rdf:resource="http://purl.org/dc/dcmitype/StillImage" />
        <dc:title></dc:title>
      </cc:Work>
    </rdf:RDF>
  </metadata>
  <g
     inkscape:label="Layer 1"
     inkscape:groupmode="layer"
     id="layer1"
     transform="translate(4.2620079e-7,-977.36217)">
    <g
       id="g4203"
       transform="matrix(0.96810443,0,0,0.96385545,77.339874,1074.5475)">
      <path
         id="path3461"
         style="fill:#ed1c24;fill-opacity:1;fill-rule:evenodd;stroke:none"
         d="m -16.956696,-77.792282 c 0.2375,-0.075 0.55,0.075 0.8625,0.4875 0,0 0,0 14.1249996,13.825 0.825,0.825 0.825,2.075 0,2.6875 0,0 0,0 -14.1249996,14.0375 -0.3125,0.4125 -0.625,0.5125 -0.8625,0.3875 -0.2375,-0.125 -0.3875,-0.4875 -0.3875,-1.0125 v -29.5125 c 0,-0.5125 0.15,-0.825 0.3875,-0.9 z"
         inkscape:connector-curvature="0" />
      <path
         id="path3463"
         style="fill:#ed1c24;fill-opacity:1;fill-rule:evenodd;stroke:none"
         d="m -41.119196,-100.82978 h 1 l 0.9625,0.4 c 0,0 0,0 14.5375,14.449998 0.625,0.825 0.4125,1.45 -0.625,1.45 0,0 0,0 -6.025,0 -1.0375,0 -1.8625,0.825 -1.8625,1.8625 0,0 0,0 0,10.725 0,1.0375 -0.8375,1.8625 -2.0875,1.8625 0,0 0,0 -10.5875,0 -1.0375,0 -1.875,-0.825 -1.875,-1.8625 0,0 0,0 0,-10.725 0,-1.0375 -0.825,-1.8625 -1.875,-1.8625 h -6.4375 c -1.0375,0 -1.25,-0.625 -0.625,-1.45 0,0 0,0 14.55,-14.449998 z"
         inkscape:connector-curvature="0" />
      <path
         id="path3465"
         style="fill:#ed1c24;fill-opacity:1;fill-rule:evenodd;stroke:none"
         d="m -63.894196,-78.104782 c 0.2625,0.125 0.425,0.4875 0.425,1.0125 v 30.125 c 0,0.525 -0.1625,0.8375 -0.425,0.9375 -0.25,0.1 -0.6125,0 -1.0375,-0.3125 0,0 0,0 -14.3375,-14.45 -0.825,-0.6125 -0.825,-1.8625 0,-2.6875 0,0 0,0 14.3375,-14.2375 0.425,-0.4125 0.7875,-0.5125 1.0375,-0.3875 z"
         inkscape:connector-curvature="0" />
      <path
         id="path3467"
         style="fill:#ed1c24;fill-opacity:1;fill-rule:evenodd;stroke:none"
         d="m -45.806696,-54.392282 c 0,0 0,0 10.5875,0 1.25,0 2.0875,0.825 2.0875,1.8625 0,0 0,0 0,11.35 0,1.2375 0.825,2.0625 1.8625,2.0625 h 5.6125 c 1.0375,0 1.45,0.6125 0.625,1.2375 0,0 0,0 -14.125,14.2375 -0.425,0.4125 -0.9375,0.625 -1.4625,0.625 -0.5125,0 -1.0375,-0.2125 -1.45,-0.625 0,0 0,0 -14.125,-14.2375 -0.8375,-0.625 -0.425,-1.2375 0.6125,-1.2375 0,0 0,0 6.025,0 1.05,0 1.875,-0.825 1.875,-2.0625 0,0 0,0 0,-11.35 0,-1.0375 0.8375,-1.8625 1.875,-1.8625 z"
         inkscape:connector-curvature="0" />
    </g>
  </g>
</svg>
